M48
; DRILL file {KiCad (6.0.2)} date Wed Jan 28 13:48:32 2026
; FORMAT={-:-/ absolute / inch / decimal}
; #@! TF.CreationDate,2026-01-28T13:48:32-08:00
; #@! TF.GenerationSoftware,Kicad,Pcbnew,(6.0.2)
; #@! TF.FileFunction,Plated,1,2,PTH
FMAT,2
INCH
; #@! TA.AperFunction,Plated,PTH,ViaDrill
T1C0.0118
; #@! TA.AperFunction,Plated,PTH,ViaDrill
T2C0.0157
; #@! TA.AperFunction,Plated,PTH,ComponentDrill
T3C0.0236
; #@! TA.AperFunction,Plated,PTH,ViaDrill
T4C0.0285
; #@! TA.AperFunction,Plated,PTH,ComponentDrill
T5C0.0315
; #@! TA.AperFunction,Plated,PTH,ComponentDrill
T6C0.0315
; #@! TA.AperFunction,Plated,PTH,ComponentDrill
T7C0.0320
; #@! TA.AperFunction,Plated,PTH,ComponentDrill
T8C0.0350
; #@! TA.AperFunction,Plated,PTH,ComponentDrill
T9C0.0394
; #@! TA.AperFunction,Plated,PTH,ComponentDrill
T10C0.0394
; #@! TA.AperFunction,Plated,PTH,ComponentDrill
T11C0.0400
; #@! TA.AperFunction,Plated,PTH,ComponentDrill
T12C0.0630
; #@! TA.AperFunction,Plated,PTH,ComponentDrill
T13C0.0710
; #@! TA.AperFunction,Plated,PTH,ComponentDrill
T14C0.0902
; #@! TA.AperFunction,Plated,PTH,ComponentDrill
T15C0.0980
; #@! TA.AperFunction,Plated,PTH,ComponentDrill
T16C0.1575
%
G90
G05
T1
X0.9125Y-2.4875
X1.2625Y-3.5
X1.275Y-2.975
X1.275Y-3.025
X1.35Y-6.15
X1.35Y-7.725
X1.4Y-4.4875
X1.4Y-4.5375
X1.4Y-4.5875
X1.4Y-4.6375
X1.4Y-4.6875
X1.4Y-4.7375
X1.4Y-5.425
X1.4Y-5.475
X1.4Y-5.525
X1.4Y-5.575
X1.4Y-5.625
X1.4Y-5.675
X1.4Y-6.2
X1.4Y-6.25
X1.4Y-6.3
X1.4Y-6.35
X1.4Y-6.4
X1.4Y-6.45
X1.4Y-7.025
X1.4Y-7.075
X1.4Y-7.125
X1.4Y-7.175
X1.4Y-7.225
X1.4Y-7.275
X1.4Y-7.775
X1.4Y-7.825
X1.4Y-7.875
X1.4Y-7.925
X1.4Y-7.975
X1.4Y-8.025
X1.4Y-8.075
X1.4Y-8.6
X1.4Y-8.65
X1.4Y-8.7
X1.4Y-8.75
X1.4Y-8.8
X1.4Y-8.85
X1.4625Y-5.8875
X1.4625Y-6.6875
X1.4625Y-7.4875
X1.4625Y-8.2875
X1.4625Y-9.075
X1.5125Y-7.725
X1.5375Y-5.85
X1.5375Y-6.65
X1.5375Y-7.45
X1.5375Y-8.25
X1.5375Y-9.05
X1.5494Y-2.5108
X1.5499Y-2.8624
X1.575Y-2.8875
X1.6Y-2.9125
X1.6Y-5.8
X1.6Y-6.6
X1.6Y-7.4
X1.6Y-8.2
X1.6Y-9.0
X1.6125Y-2.6875
X1.65Y-2.775
X1.75Y-4.25
X1.8Y-7.15
X1.8Y-8.75
X1.8125Y-3.3375
X1.8125Y-4.2875
X1.85Y-2.7125
X1.9Y-4.4
X1.9125Y-3.025
X1.9375Y-7.775
X1.95Y-3.5375
X1.95Y-5.65
X1.95Y-6.4625
X1.95Y-8.075
X1.95Y-8.8625
X2.0Y-4.6625
X2.0375Y-8.8
X2.05Y-3.025
X2.075Y-4.8875
X2.125Y-5.05
X2.15Y-3.025
X2.2125Y-2.9625
X2.225Y-3.825
X2.225Y-4.075
X2.2357Y-5.0475
X2.3Y-5.0875
X2.325Y-3.05
X2.3625Y-4.25
X2.425Y-2.1
X2.425Y-2.15
X2.425Y-2.2
X2.425Y-2.25
X2.4375Y-3.6125
X2.45Y-5.8125
X2.45Y-7.9375
X2.5Y-1.2125
X2.5125Y-4.25
X2.5375Y-3.8875
X2.6Y-1.1
X2.6Y-1.45
X2.6Y-1.7125
X2.6Y-3.575
X2.6Y-5.5875
X2.6Y-5.6375
X2.6125Y-4.3109
X2.65Y-1.15
X2.65Y-1.3375
X2.65Y-5.425
X2.65Y-5.5875
X2.65Y-5.6375
X2.675Y-4.4
X2.7Y-4.3125
X2.7Y-4.3725
X2.725Y-4.7
X2.725Y-3.5875
X2.7375Y-2.6
X2.7375Y-5.4109
X2.75Y-1.45
X2.75Y-4.3691
X2.775Y-2.6375
X2.8Y-1.1
X2.8Y-1.7625
X2.8Y-5.05
X2.8125Y-2.675
X2.8125Y-3.6
X2.825Y-3.7375
X2.85Y-2.4
X2.85Y-2.8375
X2.85Y-3.5875
X2.8668Y-4.3125
X2.9Y-3.05
X2.9125Y-4.3125
X2.9375Y-3.6125
X2.95Y-1.3625
X2.95Y-2.4
X2.95Y-3.375
X3.0Y-1.45
X3.0Y-4.6
X3.025Y-3.35
X3.0375Y-3.625
X3.05Y-1.7125
X3.05Y-2.4
X3.05Y-4.9875
X3.0875Y-2.725
X3.0875Y-3.1625
X3.0875Y-3.2125
X3.0875Y-3.2625
X3.1Y-1.1
X3.125Y-5.075
X3.1375Y-2.725
X3.1375Y-3.1625
X3.1375Y-3.2125
X3.1375Y-3.2625
X3.15Y-1.35
X3.15Y-2.4
X3.1625Y-3.325
X3.1875Y-2.725
X3.1875Y-3.1625
X3.1875Y-3.2125
X3.1875Y-3.2625
X3.2375Y-2.725
X3.2375Y-3.1625
X3.2375Y-3.2125
X3.2375Y-3.2625
X3.25Y-1.1
X3.25Y-1.4375
X3.25Y-1.475
X3.25Y-1.675
X3.25Y-1.7125
X3.25Y-1.75
X3.2734Y-3.6875
X3.308Y-6.25
X3.325Y-4.3375
X3.375Y-4.3875
X3.4Y-2.8875
X3.4Y-2.9375
X3.4Y-2.9875
X3.4Y-3.0375
X3.4Y-3.1625
X3.4Y-3.2125
X3.4Y-3.2625
X3.4Y-3.3125
X3.4Y-3.9125
X3.4Y-4.7
X3.4045Y-6.3
X3.4125Y-5.1
X3.45Y-3.9125
X3.4625Y-4.6125
X3.4625Y-4.6625
X3.4625Y-4.7125
X3.4625Y-4.7625
X3.5Y-3.9125
X3.5125Y-4.6125
X3.5125Y-4.6625
X3.5125Y-4.7125
X3.5125Y-5.1
X3.5375Y-5.2875
X3.55Y-2.2125
X3.55Y-2.2625
X3.55Y-3.8375
X3.55Y-3.9125
X3.5625Y-4.6125
X3.5625Y-4.6625
X3.6Y-1.1
X3.6Y-1.4625
X3.6Y-1.75
X3.6Y-1.8125
X3.6Y-3.1625
X3.6Y-3.2125
X3.6Y-3.2625
X3.6125Y-4.6125
X3.6125Y-5.1
X3.6375Y-3.9875
X3.6375Y-5.3625
X3.65Y-2.65
X3.65Y-3.0125
X3.65Y-3.0625
X3.65Y-3.1125
X3.65Y-3.1625
X3.65Y-3.2125
X3.65Y-3.2625
X3.6625Y-4.6125
X3.6875Y-5.1
X3.7Y-1.35
X3.7375Y-5.3875
X3.7875Y-5.1
X3.8Y-2.8
X3.8Y-2.8625
X3.8Y-3.7875
X3.8Y-3.825
X3.8Y-3.8625
X3.8Y-3.9
X3.8125Y-3.0875
X3.8229Y-2.5896
X3.8375Y-5.4125
X3.95Y-2.2125
X3.95Y-2.2625
X3.95Y-2.4375
X3.95Y-5.425
X3.9622Y-2.9875
X3.975Y-2.95
X4.0Y-2.85
X4.0Y-1.2031
X4.0223Y-3.975
X4.025Y-2.775
X4.025Y-3.425
X4.025Y-3.575
X4.025Y-3.625
X4.025Y-3.675
X4.0375Y-3.25
X4.0375Y-3.9125
X4.0382Y-3.8743
X4.0383Y-3.8369
X4.0389Y-3.7986
X4.05Y-4.2
X4.05Y-2.2125
X4.05Y-2.2625
X4.05Y-5.4875
X4.0625Y-2.7
X4.075Y-3.575
X4.075Y-3.625
X4.075Y-3.675
X4.0875Y-4.2
X4.125Y-2.65
X4.125Y-4.2
X4.125Y-4.4125
X4.15Y-5.5375
X4.1604Y-4.2
X4.1625Y-4.4125
X4.2Y-4.4
X4.2Y-5.25
X4.2Y-2.825
X4.2016Y-2.9
X4.225Y-2.575
X4.225Y-4.6125
X4.2375Y-5.55
X4.25Y-3.05
X4.2625Y-4.175
X4.2875Y-2.7876
X4.2875Y-2.8516
X4.2875Y-2.9375
X4.3Y-1.15
X4.3125Y-2.525
X4.3125Y-2.6625
X4.3125Y-2.7125
X4.3125Y-2.7625
X4.35Y-5.575
X4.35Y-4.15
X4.35Y-4.2
X4.3875Y-2.675
X4.4Y-4.15
X4.4Y-4.2
X4.45Y-1.325
X4.45Y-4.15
X4.45Y-4.2
X4.4625Y-2.6
X4.475Y-3.225
X4.5Y-1.3516
X4.5Y-4.15
X4.5Y-4.2
X4.5Y-5.45
X4.5Y-6.325
X4.5Y-7.875
X4.55Y-1.1
X4.55Y-1.75
X4.55Y-4.15
X4.55Y-4.2
X4.55Y-6.475
X4.55Y-7.275
X4.55Y-8.075
X4.55Y-8.875
X4.5749Y-5.6501
X4.6Y-4.15
X4.6Y-4.2
X4.65Y-3.225
X4.65Y-3.275
X4.6875Y-4.9
X4.7Y-1.1
X4.7Y-1.75
X4.7Y-2.05
X4.7Y-2.1
X4.7Y-3.225
X4.7Y-3.275
X4.7Y-4.15
X4.7Y-4.2
X4.7Y-5.45
X4.725Y-2.3
X4.7251Y-4.8374
X4.7386Y-4.8
X4.75Y-2.05
X4.75Y-2.1
X4.75Y-2.15
X4.75Y-2.275
X4.75Y-4.15
X4.75Y-4.2
X4.7625Y-5.75
X4.775Y-5.7125
X4.775Y-5.7875
X4.8Y-2.05
X4.8Y-2.1
X4.8Y-2.15
X4.8Y-2.2
X4.8Y-5.95
X4.8Y-6.225
X4.8Y-6.275
X4.8Y-6.325
X4.8Y-6.65
X4.8Y-6.7
X4.8Y-6.75
X4.8Y-6.8
X4.8Y-6.85
X4.8Y-6.9
X4.8Y-6.95
X4.8Y-7.0
X4.8Y-7.05
X4.8Y-7.45
X4.8Y-7.5
X4.8Y-7.55
X4.8Y-7.6
X4.8Y-7.65
X4.8Y-8.25
X4.8Y-8.3
X4.8Y-8.35
X4.8Y-8.4
X4.8Y-8.45
X4.8Y-8.5
X4.8Y-8.55
X4.8Y-9.05
X4.8Y-9.1
X4.8Y-9.15
X4.8125Y-4.1125
X4.825Y-3.225
X4.8375Y-4.2
X4.85Y-1.325
X4.85Y-2.05
X4.85Y-5.1
X4.85Y-5.45
X4.85Y-5.95
X4.85Y-6.225
X4.85Y-6.275
X4.85Y-6.325
X4.85Y-6.65
X4.85Y-6.7
X4.85Y-6.75
X4.85Y-6.8
X4.85Y-6.85
X4.85Y-6.9
X4.85Y-6.95
X4.85Y-7.0
X4.85Y-7.05
X4.85Y-7.45
X4.85Y-7.5
X4.85Y-7.55
X4.85Y-7.6
X4.85Y-7.65
X4.85Y-8.25
X4.85Y-8.3
X4.85Y-8.35
X4.85Y-8.4
X4.85Y-8.45
X4.85Y-8.5
X4.85Y-8.55
X4.85Y-9.05
X4.85Y-9.1
X4.85Y-9.15
X4.9Y-1.425
X4.9Y-2.05
X4.9125Y-5.5125
X4.925Y-3.325
X4.925Y-3.3875
X4.925Y-6.4
X4.925Y-6.45
X4.925Y-6.5
X4.925Y-6.55
X4.925Y-7.125
X4.925Y-7.175
X4.925Y-7.225
X4.925Y-7.275
X4.925Y-7.925
X4.925Y-7.975
X4.925Y-8.025
X4.925Y-8.075
X4.925Y-8.725
X4.925Y-8.775
X4.925Y-8.825
X4.925Y-8.875
X4.95Y-2.05
X4.9625Y-5.225
X4.9625Y-5.5125
X4.9732Y-3.5739
X4.9745Y-3.5368
X4.975Y-3.6125
X4.975Y-6.4
X4.975Y-6.45
X4.975Y-6.5
X4.975Y-6.55
X4.975Y-7.125
X4.975Y-7.175
X4.975Y-7.225
X4.975Y-7.275
X4.975Y-7.925
X4.975Y-7.975
X4.975Y-8.025
X4.975Y-8.075
X4.975Y-8.725
X4.975Y-8.775
X4.975Y-8.825
X4.975Y-8.875
X4.9875Y-5.925
X4.9891Y-4.6875
X4.9968Y-4.6407
X5.0Y-2.05
X5.0Y-3.275
X5.0Y-3.325
X5.0Y-4.05
X5.0Y-5.9625
X5.0114Y-3.7246
X5.0125Y-3.6125
X5.0125Y-3.65
X5.0125Y-3.6875
X5.025Y-3.8254
X5.025Y-3.875
X5.025Y-6.0626
X5.05Y-2.05
X5.05Y-4.525
X5.05Y-4.5625
X5.1Y-3.125
X5.1Y-7.725
X5.1382Y-5.8257
X5.15Y-1.3625
X5.15Y-3.125
X5.175Y-4.625
X5.175Y-5.5484
X5.1873Y-3.54
X5.1875Y-3.625
X5.1875Y-3.8
X5.2Y-1.4354
X5.2Y-7.7625
X5.2033Y-3.7675
X5.2141Y-3.5126
X5.2281Y-3.7093
X5.2375Y-6.1625
X5.2391Y-3.4875
X5.25Y-1.15
X5.2625Y-4.6875
X5.2859Y-5.5734
X5.325Y-3.175
X5.3295Y-6.1625
X5.3625Y-3.2125
X5.375Y-2.0016
X5.375Y-5.6125
X5.4Y-3.25
X5.4125Y-1.9375
X5.425Y-2.375
X5.425Y-2.425
X5.425Y-2.475
X5.425Y-2.525
X5.425Y-2.8625
X5.425Y-4.8125
X5.4295Y-6.025
X5.4625Y-4.75
X5.4625Y-2.8625
X5.475Y-4.3875
X5.4875Y-1.15
X5.5Y-5.625
X5.5125Y-4.8626
X5.525Y-1.35
X5.525Y-4.4375
X5.5295Y-6.1375
X5.5375Y-1.3875
X5.5589Y-5.5411
X5.5625Y-4.775
X5.575Y-4.4875
X5.6375Y-6.0875
X5.6744Y-4.5
X5.675Y-3.975
X5.675Y-5.575
X5.7Y-3.95
X5.7234Y-2.05
X5.7249Y-1.9249
X5.7375Y-5.85
X5.7375Y-4.8375
X5.7375Y-5.0625
X5.7625Y-1.7375
X5.775Y-4.8375
X5.7766Y-5.6359
X5.8Y-1.725
X5.8Y-4.2359
X5.8125Y-1.6875
X5.825Y-1.25
X5.8375Y-4.3
X5.8375Y-5.05
X5.8484Y-1.6625
X5.85Y-2.225
X5.8516Y-5.825
X5.8625Y-1.425
X5.875Y-4.2875
X5.8875Y-4.375
X5.9Y-1.2875
X5.9125Y-3.25
X5.9125Y-3.5625
X5.9125Y-3.6
X5.9125Y-4.35
X5.9318Y-4.4625
X5.9375Y-1.45
X5.9375Y-5.0375
X5.9375Y-5.875
X5.9479Y-2.0375
X5.95Y-4.425
X5.975Y-2.2959
X5.9875Y-2.5609
X6.0Y-4.6625
X6.0125Y-2.3859
X6.0125Y-3.0625
X6.0375Y-5.0375
X6.0375Y-5.8875
X6.05Y-2.4984
X6.05Y-4.6125
X6.0589Y-5.2875
X6.1375Y-3.0625
X6.1375Y-3.7375
X6.1375Y-5.0375
X6.1516Y-5.825
X6.2Y-1.15
X6.225Y-3.0625
X6.2625Y-1.55
X6.2625Y-1.65
X6.3125Y-2.0609
X6.325Y-3.7375
X6.35Y-5.225
X6.3625Y-1.85
X6.4375Y-1.15
X6.45Y-2.0
X6.45Y-5.25
X6.4625Y-3.7375
X6.5Y-1.975
X6.5Y-2.075
X6.5125Y-2.625
X6.5375Y-1.6
X6.5875Y-3.225
X6.5875Y-3.5
X6.6Y-3.8375
X6.6Y-7.8875
X6.625Y-1.9
X6.6375Y-3.8375
X6.65Y-5.675
X6.65Y-6.475
X6.65Y-7.225
X6.65Y-7.275
X6.65Y-8.075
X6.65Y-8.85
X6.7Y-1.75
X6.7Y-1.85
X6.7Y-2.025
X6.7Y-7.8
X6.7001Y-4.8126
X6.7625Y-1.425
X6.8Y-4.0125
X6.8Y-4.05
X6.875Y-5.0
X6.95Y-1.2875
X6.9875Y-1.2875
X7.0Y-2.4
X7.0Y-2.45
X7.0Y-4.7375
X7.0Y-5.8
X7.0Y-5.85
X7.0Y-5.9
X7.0Y-6.5375
X7.0359Y-4.8484
X7.05Y-5.8
X7.05Y-5.85
X7.05Y-5.9
X7.05Y-6.275
X7.05Y-6.325
X7.05Y-6.375
X7.05Y-6.425
X7.05Y-6.475
X7.05Y-7.075
X7.05Y-7.125
X7.05Y-7.175
X7.05Y-7.225
X7.05Y-7.275
X7.05Y-7.875
X7.05Y-7.925
X7.05Y-7.975
X7.05Y-8.025
X7.05Y-8.075
X7.05Y-8.95
X7.05Y-9.0
X7.05Y-9.05
X7.0625Y-4.7625
X7.0641Y-3.475
X7.0703Y-3.2
X7.1Y-1.2875
X7.1Y-3.475
X7.1Y-5.8
X7.1Y-5.85
X7.1Y-5.9
X7.1Y-6.275
X7.1Y-6.325
X7.1Y-6.375
X7.1Y-6.425
X7.1Y-6.475
X7.1Y-7.075
X7.1Y-7.125
X7.1Y-7.175
X7.1Y-7.225
X7.1Y-7.275
X7.1Y-7.875
X7.1Y-7.925
X7.1Y-7.975
X7.1Y-8.025
X7.1Y-8.075
X7.1Y-8.95
X7.1Y-9.0
X7.1Y-9.05
T2
X1.7625Y-7.9
X2.075Y-4.25
X2.3Y-3.625
X2.8625Y-3.9625
X2.9Y-5.0264
X2.9285Y-3.975
X2.9875Y-4.0139
X3.05Y-3.9889
X3.0882Y-4.625
X3.1125Y-3.65
X3.1625Y-4.2889
X3.2Y-4.6604
X3.2125Y-3.6625
X3.2285Y-3.7
X3.25Y-4.45
X3.2875Y-4.675
X3.3058Y-4.0461
X4.275Y-3.225
X5.0Y-1.1
X5.0Y-1.75
X5.4125Y-4.2375
X5.4875Y-3.3375
X5.725Y-4.55
X5.775Y-4.6
X6.25Y-2.4387
X6.3215Y-2.425
X6.4Y-3.0625
X6.45Y-2.075
X6.5Y-1.925
X6.625Y-2.975
X6.625Y-3.025
X6.65Y-1.8
X6.8514Y-1.5264
X6.9125Y-2.7907
X6.9125Y-2.8625
X7.05Y-3.8
X7.15Y-3.725
T3
X0.9819Y-0.95
X0.9819Y-3.75
X0.9819Y-5.55
X0.9819Y-8.65
X1.0165Y-0.8665
X1.0165Y-1.0335
X1.0165Y-3.6665
X1.0165Y-3.8335
X1.0165Y-5.4665
X1.0165Y-5.6335
X1.0165Y-8.5665
X1.0165Y-8.7335
X1.1Y-0.8319
X1.1Y-1.0681
X1.1Y-3.6319
X1.1Y-3.8681
X1.1Y-5.4319
X1.1Y-5.6681
X1.1Y-8.5319
X1.1Y-8.7681
X1.1835Y-0.8665
X1.1835Y-1.0335
X1.1835Y-3.6665
X1.1835Y-3.8335
X1.1835Y-5.4665
X1.1835Y-5.6335
X1.1835Y-8.5665
X1.1835Y-8.7335
X1.2181Y-0.95
X1.2181Y-3.75
X1.2181Y-5.55
X1.2181Y-8.65
X7.0819Y-0.95
X7.0819Y-5.55
X7.0819Y-8.65
X7.1165Y-0.8665
X7.1165Y-1.0335
X7.1165Y-5.4665
X7.1165Y-5.6335
X7.1165Y-8.5665
X7.1165Y-8.7335
X7.2Y-0.8319
X7.2Y-1.0681
X7.2Y-5.4319
X7.2Y-5.6681
X7.2Y-8.5319
X7.2Y-8.7681
X7.2835Y-0.8665
X7.2835Y-1.0335
X7.2835Y-5.4665
X7.2835Y-5.6335
X7.2835Y-8.5665
X7.2835Y-8.7335
X7.3181Y-0.95
X7.3181Y-5.55
X7.3181Y-8.65
T4
X1.4125Y-1.65
X1.7625Y-2.5375
X2.8Y-8.025
T5
X5.5606Y-2.9276
X5.5606Y-3.0063
X5.5606Y-3.085
X5.5606Y-3.1638
X5.5606Y-3.2425
X5.5606Y-3.3213
X5.5606Y-3.4
X5.5606Y-3.4787
X5.5606Y-3.5575
X5.5606Y-3.6362
X5.5606Y-3.715
X5.5606Y-3.7937
X5.5606Y-3.8724
X5.6394Y-2.9276
X5.6394Y-3.0063
X5.6394Y-3.085
X5.6394Y-3.1638
X5.6394Y-3.2425
X5.6394Y-3.3213
X5.6394Y-3.4
X5.6394Y-3.4787
X5.6394Y-3.5575
X5.6394Y-3.6362
X5.6394Y-3.715
X5.6394Y-3.7937
X5.6394Y-3.8724
X5.7776Y-2.7106
X5.7776Y-2.7894
X5.7776Y-4.0106
X5.7776Y-4.0894
X5.8563Y-2.7106
X5.8563Y-2.7894
X5.8563Y-4.0106
X5.8563Y-4.0894
X5.935Y-2.7106
X5.935Y-2.7894
X5.935Y-4.0106
X5.935Y-4.0894
X6.0138Y-2.7106
X6.0138Y-2.7894
X6.0138Y-4.0106
X6.0138Y-4.0894
X6.0925Y-2.7106
X6.0925Y-2.7894
X6.0925Y-4.0106
X6.0925Y-4.0894
X6.1713Y-2.7106
X6.1713Y-2.7894
X6.1713Y-4.0106
X6.1713Y-4.0894
X6.25Y-2.7106
X6.25Y-2.7894
X6.25Y-4.0106
X6.25Y-4.0894
X6.3287Y-2.7106
X6.3287Y-2.7894
X6.3287Y-4.0106
X6.3287Y-4.0894
X6.4075Y-2.7106
X6.4075Y-2.7894
X6.4075Y-4.0106
X6.4075Y-4.0894
X6.4862Y-2.7106
X6.4862Y-2.7894
X6.4862Y-4.0106
X6.4862Y-4.0894
X6.565Y-2.7106
X6.565Y-2.7894
X6.565Y-4.0106
X6.565Y-4.0894
X6.6437Y-2.7106
X6.6437Y-2.7894
X6.6437Y-4.0106
X6.6437Y-4.0894
X6.7224Y-2.7106
X6.7224Y-2.7894
X6.7224Y-4.0106
X6.7224Y-4.0894
X6.8606Y-2.9276
X6.8606Y-3.0063
X6.8606Y-3.085
X6.8606Y-3.1638
X6.8606Y-3.2425
X6.8606Y-3.3213
X6.8606Y-3.4
X6.8606Y-3.4787
X6.8606Y-3.5575
X6.8606Y-3.6362
X6.8606Y-3.715
X6.8606Y-3.7937
X6.8606Y-3.8724
X6.9394Y-2.9276
X6.9394Y-3.0063
X6.9394Y-3.085
X6.9394Y-3.1638
X6.9394Y-3.2425
X6.9394Y-3.3213
X6.9394Y-3.4
X6.9394Y-3.4787
X6.9394Y-3.5575
X6.9394Y-3.6362
X6.9394Y-3.715
X6.9394Y-3.7937
X6.9394Y-3.8724
T6
X1.4125Y-1.0383
X1.4125Y-1.1367
X1.4125Y-1.2633
X1.4125Y-1.3617
X1.4125Y-2.0508
X1.4125Y-2.1492
X1.9Y-5.4008
X1.9Y-5.4992
X1.9Y-6.2008
X1.9Y-6.2992
X1.9Y-7.0008
X1.9Y-7.0992
X1.9Y-8.6008
X1.9Y-8.6992
X2.05Y-2.0508
X2.05Y-2.1492
X2.05Y-2.2758
X2.05Y-2.3742
X2.1Y-6.2008
X2.1Y-6.2992
X2.1Y-8.6008
X2.1Y-8.6992
X2.3Y-6.2008
X2.3Y-6.2992
X2.3Y-8.6008
X2.3Y-8.6992
X2.5Y-6.2008
X2.5Y-6.2992
X2.5Y-8.6008
X2.5Y-8.6992
X4.5Y-7.0008
X4.5Y-7.0992
X4.5Y-8.6008
X4.5Y-8.6992
X4.6Y-2.7008
X4.6Y-2.7992
X4.85Y-4.7008
X4.85Y-4.7992
X5.95Y-0.8508
X5.95Y-0.9492
X6.25Y-4.2508
X6.25Y-4.3492
X6.6Y-5.4008
X6.6Y-5.4992
X6.6Y-7.0008
X6.6Y-7.0992
X6.6Y-8.6008
X6.6Y-8.6992
X7.1Y-2.4508
X7.1Y-2.5492
T7
X0.8125Y-2.8
X0.8125Y-2.9
X0.8125Y-3.0
X0.8125Y-3.1
X0.85Y-2.2
X0.85Y-2.6
X0.8625Y-2.7
X0.8625Y-3.2
X0.8625Y-3.5
X0.9Y-5.85
X0.9Y-5.95
X0.9Y-6.05
X0.9Y-6.45
X0.9Y-6.55
X0.9Y-6.65
X0.9Y-6.75
X0.9Y-6.85
X0.9Y-6.95
X0.9Y-7.05
X0.9Y-7.45
X0.9Y-7.55
X0.9Y-7.65
X0.9Y-7.75
X0.9Y-7.85
X0.9Y-7.95
X0.9Y-8.05
X0.9Y-8.35
X0.95Y-6.15
X0.95Y-6.25
X0.95Y-7.25
X0.95Y-8.25
X0.9625Y-2.7
X0.9625Y-2.9
X0.9625Y-3.1
X0.9625Y-3.2
X0.9625Y-3.5
X0.9875Y-2.2
X0.9875Y-2.6
X1.0625Y-2.7
X1.0625Y-2.9
X1.0625Y-3.1
X1.0625Y-3.2
X1.0625Y-3.5
X1.125Y-2.2
X1.125Y-2.6
X1.15Y-6.15
X1.15Y-6.25
X1.15Y-7.25
X1.15Y-8.25
X1.1625Y-2.7
X1.1625Y-2.9
X1.1625Y-3.1
X1.1625Y-3.2
X1.1625Y-3.4
X1.2Y-5.85
X1.2Y-5.95
X1.2Y-6.05
X1.2Y-6.45
X1.2Y-6.55
X1.2Y-6.65
X1.2Y-6.75
X1.2Y-6.85
X1.2Y-6.95
X1.2Y-7.05
X1.2Y-7.45
X1.2Y-7.55
X1.2Y-7.65
X1.2Y-7.75
X1.2Y-7.85
X1.2Y-7.95
X1.2Y-8.05
X1.2Y-8.35
X1.2625Y-2.2
X1.2625Y-2.6
X1.2625Y-2.7
X1.2625Y-2.9
X1.2625Y-3.1
X1.2625Y-3.2
X1.2625Y-3.4
X1.5Y-2.7
X1.5Y-2.8
X1.5Y-3.4
X1.5Y-3.5
X1.5Y-3.8
X1.6Y-2.8
X1.6Y-3.4
X1.6Y-3.5
X1.6Y-3.8
X1.7Y-2.7
X1.7Y-2.8
X1.7Y-3.4
X1.7Y-3.5
X1.7Y-3.8
X1.7Y-7.85
X1.8Y-2.8
X1.8Y-3.4
X1.8Y-3.5
X1.8Y-3.8
X1.8Y-7.85
X1.9Y-2.8
X1.9Y-3.4
X1.9Y-3.5
X1.9Y-3.8
X1.9Y-4.1125
X1.9Y-4.2
X1.9Y-4.8
X1.9Y-7.85
X1.966Y-3.8872
X1.966Y-4.0122
X2.0Y-2.8
X2.0Y-3.4
X2.0Y-3.5
X2.0Y-3.8
X2.0Y-4.2
X2.0Y-4.8
X2.0Y-7.85
X2.1Y-2.8
X2.1Y-3.4
X2.1Y-3.5
X2.1Y-3.8
X2.1Y-4.1125
X2.1Y-4.2
X2.1Y-4.8
X2.1Y-7.85
X2.166Y-3.8997
X2.166Y-3.9997
X2.2Y-2.8
X2.2Y-3.4
X2.2Y-4.2
X2.2Y-4.8
X2.2Y-7.85
X2.3Y-2.8
X2.3Y-3.4
X2.3Y-3.5
X2.3Y-4.1
X2.3Y-4.2
X2.3Y-4.8
X2.3Y-7.85
X2.4Y-2.8
X2.4Y-3.4
X2.4Y-3.5
X2.4Y-4.1
X2.4Y-4.2
X2.4Y-4.8
X2.4Y-7.85
X2.45Y-0.95
X2.45Y-1.25
X2.45Y-1.55
X2.45Y-1.85
X2.5Y-2.8
X2.5Y-3.4
X2.5Y-3.5
X2.5Y-4.1
X2.5Y-4.2
X2.5Y-4.8
X2.5Y-7.85
X2.55Y-0.95
X2.55Y-1.25
X2.55Y-1.55
X2.55Y-1.85
X2.6Y-2.15
X2.6Y-2.45
X2.6Y-2.8
X2.6Y-3.4
X2.6Y-3.5
X2.6Y-4.1
X2.6Y-4.2
X2.6Y-4.8
X2.6Y-7.0
X2.6Y-7.1
X2.65Y-0.95
X2.65Y-1.25
X2.65Y-1.55
X2.65Y-1.85
X2.7Y-2.15
X2.7Y-2.45
X2.7Y-2.8
X2.7Y-3.4
X2.7Y-3.5
X2.7Y-4.1
X2.7Y-4.2
X2.7Y-4.8
X2.7Y-6.2
X2.7Y-6.3
X2.7Y-8.55
X2.7Y-8.75
X2.75Y-0.95
X2.75Y-1.25
X2.75Y-1.55
X2.75Y-1.85
X2.8Y-2.15
X2.8Y-2.45
X2.8Y-2.8
X2.8Y-3.4
X2.8Y-3.5
X2.8Y-4.1
X2.8Y-4.2
X2.8Y-4.8
X2.8Y-6.2
X2.8Y-6.3
X2.8Y-7.85
X2.8Y-8.55
X2.8Y-8.75
X2.85Y-0.95
X2.85Y-1.25
X2.85Y-1.55
X2.85Y-1.85
X2.9Y-2.15
X2.9Y-2.45
X2.9Y-2.8
X2.9Y-3.4
X2.9Y-3.5
X2.9Y-4.1
X2.9Y-4.2
X2.9Y-4.8
X2.9Y-6.2
X2.9Y-6.3
X2.9Y-7.0
X2.9Y-7.1
X2.9Y-7.85
X2.9Y-8.55
X2.9Y-8.75
X2.95Y-0.95
X2.95Y-1.25
X2.95Y-1.55
X2.95Y-1.85
X3.0Y-2.15
X3.0Y-2.45
X3.0Y-2.8
X3.0Y-3.4
X3.0Y-3.5
X3.0Y-4.1
X3.0Y-4.2
X3.0Y-4.8
X3.0Y-6.2
X3.0Y-6.3
X3.0Y-7.85
X3.0Y-8.55
X3.0Y-8.75
X3.05Y-0.95
X3.05Y-1.25
X3.05Y-1.55
X3.05Y-1.85
X3.1Y-2.15
X3.1Y-2.45
X3.1Y-2.8
X3.1Y-3.4
X3.1Y-3.5
X3.1Y-4.1
X3.1Y-4.2
X3.1Y-4.8
X3.1Y-6.2
X3.1Y-6.3
X3.1Y-7.85
X3.15Y-0.95
X3.15Y-1.25
X3.15Y-1.55
X3.15Y-1.85
X3.2Y-2.15
X3.2Y-2.45
X3.2Y-2.8
X3.2Y-3.4
X3.2Y-3.5
X3.2Y-4.1
X3.2Y-4.2
X3.2Y-4.8
X3.2Y-6.2
X3.2Y-6.3
X3.2Y-7.85
X3.25Y-0.95
X3.25Y-1.25
X3.25Y-1.55
X3.25Y-1.85
X3.3Y-2.15
X3.3Y-2.45
X3.3Y-2.8
X3.3Y-3.4
X3.3Y-3.5
X3.3Y-4.1
X3.3Y-4.2
X3.3Y-4.8
X3.3Y-7.85
X3.35Y-0.95
X3.35Y-1.25
X3.35Y-1.55
X3.35Y-1.85
X3.4Y-2.15
X3.4Y-2.45
X3.4Y-2.8
X3.4Y-3.4
X3.4Y-3.5
X3.4Y-4.1
X3.4Y-4.2
X3.4Y-4.8
X3.4Y-7.85
X3.45Y-0.95
X3.45Y-1.25
X3.45Y-1.55
X3.45Y-1.85
X3.5Y-2.15
X3.5Y-2.45
X3.5Y-7.85
X3.55Y-0.95
X3.55Y-1.25
X3.55Y-1.55
X3.55Y-1.85
X3.55Y-3.5
X3.55Y-3.7
X3.6Y-2.15
X3.6Y-2.45
X3.6Y-7.85
X3.65Y-0.95
X3.65Y-1.25
X3.65Y-1.55
X3.65Y-1.85
X3.7Y-2.15
X3.7Y-2.45
X3.7Y-8.55
X3.7Y-8.75
X3.75Y-0.95
X3.75Y-1.25
X3.75Y-1.55
X3.75Y-1.85
X3.8Y-2.15
X3.8Y-2.45
X3.8Y-8.55
X3.8Y-8.75
X3.85Y-0.95
X3.85Y-1.25
X3.85Y-1.55
X3.85Y-1.85
X3.9Y-2.15
X3.9Y-2.45
X3.9Y-8.55
X3.9Y-8.75
X3.95Y-0.95
X3.95Y-1.25
X3.95Y-1.55
X3.95Y-1.85
X4.0Y-2.15
X4.0Y-2.45
X4.0Y-8.55
X4.0Y-8.75
X4.025Y-4.525
X4.05Y-0.95
X4.05Y-1.25
X4.05Y-1.55
X4.05Y-1.85
X4.1Y-2.15
X4.1Y-2.45
X4.1Y-8.55
X4.1Y-8.75
X4.15Y-0.95
X4.15Y-1.25
X4.15Y-1.55
X4.15Y-1.85
X4.2Y-2.15
X4.2Y-2.45
X4.225Y-4.525
X4.25Y-0.95
X4.25Y-1.25
X4.25Y-1.55
X4.25Y-1.85
X4.3Y-2.15
X4.3Y-2.45
X4.35Y-0.95
X4.35Y-1.25
X4.35Y-1.55
X4.35Y-1.85
X4.45Y-0.95
X4.45Y-1.25
X4.45Y-1.55
X4.45Y-1.85
X4.525Y-2.2
X4.525Y-2.4
X4.55Y-0.95
X4.55Y-1.25
X4.55Y-1.55
X4.55Y-1.85
X4.65Y-0.95
X4.65Y-1.25
X4.65Y-1.55
X4.65Y-1.85
X4.7Y-2.2
X4.7Y-2.5
X4.75Y-0.95
X4.75Y-1.25
X4.75Y-1.55
X4.75Y-1.85
X4.85Y-0.95
X4.85Y-1.25
X4.85Y-1.55
X4.85Y-1.85
X4.95Y-0.95
X4.95Y-1.25
X4.95Y-1.55
X4.95Y-1.85
X5.0Y-2.2
X5.0Y-2.5
X5.05Y-0.95
X5.05Y-1.25
X5.05Y-1.55
X5.05Y-1.85
X5.15Y-0.95
X5.15Y-1.25
X5.15Y-1.55
X5.15Y-1.85
X5.25Y-0.95
X5.25Y-1.25
X5.25Y-1.55
X5.25Y-1.85
X5.2625Y-2.05
X5.2625Y-2.2
X5.2625Y-2.5
X5.3Y-3.575
X5.3Y-3.775
X5.3Y-8.55
X5.3Y-8.75
X5.35Y-0.95
X5.35Y-1.25
X5.35Y-1.55
X5.35Y-1.85
X5.4Y-8.55
X5.4Y-8.75
X5.5Y-8.55
X5.5Y-8.75
X5.5625Y-2.05
X5.5625Y-2.2
X5.5625Y-2.5
X5.6Y-6.3
X5.6Y-8.55
X5.6Y-8.75
X5.7Y-8.55
X5.7Y-8.75
X5.85Y-1.05
X5.9Y-2.4625
X5.9Y-6.3
X6.0Y-1.35
X6.0Y-1.45
X6.0Y-1.55
X6.0Y-1.65
X6.0Y-1.75
X6.0Y-1.85
X6.0Y-1.95
X6.0Y-2.05
X6.0Y-2.15
X6.0Y-4.45
X6.0Y-4.75
X6.0Y-6.3
X6.05Y-1.05
X6.1Y-1.25
X6.1Y-1.35
X6.1Y-1.45
X6.1Y-1.55
X6.1Y-1.65
X6.1Y-1.75
X6.1Y-1.85
X6.1Y-1.95
X6.1Y-2.05
X6.1Y-2.15
X6.1Y-2.25
X6.1Y-4.45
X6.1Y-4.75
X6.15Y-0.95
X6.15Y-1.05
X6.2Y-1.25
X6.2Y-1.35
X6.2Y-2.15
X6.2Y-2.25
X6.2Y-2.4625
X6.2Y-4.45
X6.2Y-4.65
X6.3Y-1.25
X6.3Y-1.35
X6.3Y-2.15
X6.3Y-2.25
X6.3Y-4.45
X6.3Y-4.65
X6.3Y-6.3
X6.4Y-1.25
X6.4Y-1.35
X6.4Y-2.15
X6.4Y-2.25
X6.4Y-2.4625
X6.45Y-0.95
X6.45Y-1.05
X6.45Y-4.4539
X6.45Y-4.6461
X6.5Y-1.25
X6.5Y-1.35
X6.5Y-2.15
X6.5Y-2.25
X6.6Y-1.25
X6.6Y-1.35
X6.6Y-2.15
X6.6Y-2.25
X6.6Y-2.4625
X6.7Y-1.25
X6.7Y-1.35
X6.7Y-2.15
X6.7Y-2.25
X6.75Y-4.4
X6.75Y-4.5
X6.75Y-4.6
X6.8Y-1.25
X6.8Y-1.35
X6.8Y-2.15
X6.8Y-2.25
X6.9Y-1.25
X6.9Y-1.35
X6.9Y-1.45
X6.9Y-1.55
X6.9Y-1.65
X6.9Y-1.75
X6.9Y-1.85
X6.9Y-1.95
X6.9Y-2.05
X6.9Y-2.15
X6.9Y-2.25
X6.9Y-4.2
X6.9Y-4.4
X6.9Y-4.5
X6.9Y-4.8
X7.0Y-1.35
X7.0Y-1.45
X7.0Y-1.55
X7.0Y-1.65
X7.0Y-1.75
X7.0Y-1.85
X7.0Y-1.95
X7.0Y-2.05
X7.0Y-2.15
X7.0Y-4.1
X7.0Y-4.4
X7.0Y-4.5
X7.0Y-4.8
X7.1Y-3.4
X7.1Y-3.6
X7.1Y-3.7
X7.1Y-4.0
X7.2Y-3.7
X7.2Y-4.0
T8
X1.0346Y-1.6661
X1.0346Y-1.7488
X1.0346Y-1.8512
X1.0346Y-1.9339
X1.1331Y-1.6661
X1.1331Y-1.9339
T9
X1.7Y-4.95
X1.7Y-5.15
X1.7Y-5.75
X1.7Y-5.95
X1.7Y-6.55
X1.7Y-6.75
X1.7Y-7.35
X1.7Y-7.55
X1.7Y-8.15
X1.7Y-8.35
X1.7Y-8.95
X1.7Y-9.15
X1.8Y-4.95
X1.8Y-5.15
X1.8Y-5.75
X1.8Y-5.95
X1.8Y-6.55
X1.8Y-6.75
X1.8Y-7.35
X1.8Y-7.55
X1.8Y-8.15
X1.8Y-8.35
X1.8Y-8.95
X1.8Y-9.15
X1.9Y-4.95
X1.9Y-5.15
X1.9Y-5.75
X1.9Y-5.95
X1.9Y-6.55
X1.9Y-6.75
X1.9Y-7.35
X1.9Y-7.55
X1.9Y-8.15
X1.9Y-8.35
X1.9Y-8.95
X1.9Y-9.15
X2.0Y-4.95
X2.0Y-5.15
X2.0Y-5.75
X2.0Y-5.95
X2.0Y-6.55
X2.0Y-6.75
X2.0Y-7.35
X2.0Y-7.55
X2.0Y-8.15
X2.0Y-8.35
X2.0Y-8.95
X2.0Y-9.15
X2.1Y-4.95
X2.1Y-5.15
X2.1Y-5.75
X2.1Y-5.95
X2.1Y-6.55
X2.1Y-6.75
X2.1Y-7.35
X2.1Y-7.55
X2.1Y-8.15
X2.1Y-8.35
X2.1Y-8.95
X2.1Y-9.15
X2.2Y-4.95
X2.2Y-5.15
X2.2Y-5.75
X2.2Y-5.95
X2.2Y-6.55
X2.2Y-6.75
X2.2Y-7.35
X2.2Y-7.55
X2.2Y-8.15
X2.2Y-8.35
X2.2Y-8.95
X2.2Y-9.15
X2.3Y-4.95
X2.3Y-5.15
X2.3Y-5.75
X2.3Y-5.95
X2.3Y-6.55
X2.3Y-6.75
X2.3Y-7.35
X2.3Y-7.55
X2.3Y-8.15
X2.3Y-8.35
X2.3Y-8.95
X2.3Y-9.15
X2.4Y-4.95
X2.4Y-5.15
X2.4Y-5.75
X2.4Y-5.95
X2.4Y-6.55
X2.4Y-6.75
X2.4Y-7.35
X2.4Y-7.55
X2.4Y-8.15
X2.4Y-8.35
X2.4Y-8.95
X2.4Y-9.15
X2.5Y-4.95
X2.5Y-5.15
X2.5Y-5.75
X2.5Y-5.95
X2.5Y-6.55
X2.5Y-6.75
X2.5Y-7.35
X2.5Y-7.55
X2.5Y-8.15
X2.5Y-8.35
X2.5Y-8.95
X2.5Y-9.15
X2.6Y-4.95
X2.6Y-5.15
X2.6Y-5.75
X2.6Y-5.95
X2.6Y-6.55
X2.6Y-6.75
X2.6Y-7.35
X2.6Y-7.55
X2.6Y-8.15
X2.6Y-8.35
X2.6Y-8.95
X2.6Y-9.15
X2.7Y-4.95
X2.7Y-5.15
X2.7Y-5.75
X2.7Y-5.95
X2.7Y-6.55
X2.7Y-6.75
X2.7Y-7.35
X2.7Y-7.55
X2.7Y-8.15
X2.7Y-8.35
X2.7Y-8.95
X2.7Y-9.15
X2.8Y-4.95
X2.8Y-5.15
X2.8Y-5.75
X2.8Y-5.95
X2.8Y-6.55
X2.8Y-6.75
X2.8Y-7.35
X2.8Y-7.55
X2.8Y-8.15
X2.8Y-8.35
X2.8Y-8.95
X2.8Y-9.15
X2.9Y-4.95
X2.9Y-5.15
X2.9Y-5.75
X2.9Y-5.95
X2.9Y-6.55
X2.9Y-6.75
X2.9Y-7.35
X2.9Y-7.55
X2.9Y-8.15
X2.9Y-8.35
X2.9Y-8.95
X2.9Y-9.15
X3.0Y-4.95
X3.0Y-5.15
X3.0Y-5.75
X3.0Y-5.95
X3.0Y-6.55
X3.0Y-6.75
X3.0Y-7.35
X3.0Y-7.55
X3.0Y-8.15
X3.0Y-8.35
X3.0Y-8.95
X3.0Y-9.15
X3.1Y-4.95
X3.1Y-5.15
X3.1Y-5.75
X3.1Y-5.95
X3.1Y-6.55
X3.1Y-6.75
X3.1Y-7.35
X3.1Y-7.55
X3.1Y-8.15
X3.1Y-8.35
X3.1Y-8.95
X3.1Y-9.15
X3.2Y-4.95
X3.2Y-5.15
X3.2Y-5.75
X3.2Y-5.95
X3.2Y-6.55
X3.2Y-6.75
X3.2Y-7.35
X3.2Y-7.55
X3.2Y-8.15
X3.2Y-8.35
X3.2Y-8.95
X3.2Y-9.15
X3.3Y-4.95
X3.3Y-5.15
X3.3Y-5.75
X3.3Y-5.95
X3.3Y-6.55
X3.3Y-6.75
X3.3Y-7.35
X3.3Y-7.55
X3.3Y-8.15
X3.3Y-8.35
X3.3Y-8.95
X3.3Y-9.15
X3.4Y-4.95
X3.4Y-5.15
X3.4Y-5.75
X3.4Y-5.95
X3.4Y-6.55
X3.4Y-6.75
X3.4Y-7.35
X3.4Y-7.55
X3.4Y-8.15
X3.4Y-8.35
X3.4Y-8.95
X3.4Y-9.15
X3.5Y-4.95
X3.5Y-5.15
X3.5Y-5.75
X3.5Y-5.95
X3.5Y-6.55
X3.5Y-6.75
X3.5Y-7.35
X3.5Y-7.55
X3.5Y-8.15
X3.5Y-8.35
X3.5Y-8.95
X3.5Y-9.15
X3.6Y-4.95
X3.6Y-5.15
X3.6Y-5.75
X3.6Y-5.95
X3.6Y-6.55
X3.6Y-6.75
X3.6Y-7.35
X3.6Y-7.55
X3.6Y-8.15
X3.6Y-8.35
X3.6Y-8.95
X3.6Y-9.15
X3.7Y-4.95
X3.7Y-5.15
X3.7Y-5.75
X3.7Y-5.95
X3.7Y-6.55
X3.7Y-6.75
X3.7Y-7.35
X3.7Y-7.55
X3.7Y-8.15
X3.7Y-8.35
X3.7Y-8.95
X3.7Y-9.15
X3.8Y-4.95
X3.8Y-5.15
X3.8Y-5.75
X3.8Y-5.95
X3.8Y-6.55
X3.8Y-6.75
X3.8Y-7.35
X3.8Y-7.55
X3.8Y-8.15
X3.8Y-8.35
X3.8Y-8.95
X3.8Y-9.15
X3.9Y-4.95
X3.9Y-5.15
X3.9Y-5.75
X3.9Y-5.95
X3.9Y-6.55
X3.9Y-6.75
X3.9Y-7.35
X3.9Y-7.55
X3.9Y-8.15
X3.9Y-8.35
X3.9Y-8.95
X3.9Y-9.15
X4.0Y-4.95
X4.0Y-5.15
X4.0Y-5.75
X4.0Y-5.95
X4.0Y-6.55
X4.0Y-6.75
X4.0Y-7.35
X4.0Y-7.55
X4.0Y-8.15
X4.0Y-8.35
X4.0Y-8.95
X4.0Y-9.15
X4.1Y-4.95
X4.1Y-5.15
X4.1Y-5.75
X4.1Y-5.95
X4.1Y-6.55
X4.1Y-6.75
X4.1Y-7.35
X4.1Y-7.55
X4.1Y-8.15
X4.1Y-8.35
X4.1Y-8.95
X4.1Y-9.15
X4.2Y-4.95
X4.2Y-5.15
X4.2Y-5.75
X4.2Y-5.95
X4.2Y-6.55
X4.2Y-6.75
X4.2Y-7.35
X4.2Y-7.55
X4.2Y-8.15
X4.2Y-8.35
X4.2Y-8.95
X4.2Y-9.15
X4.3Y-4.95
X4.3Y-5.15
X4.3Y-5.75
X4.3Y-5.95
X4.3Y-6.55
X4.3Y-6.75
X4.3Y-7.35
X4.3Y-7.55
X4.3Y-8.15
X4.3Y-8.35
X4.3Y-8.95
X4.3Y-9.15
X4.4Y-4.95
X4.4Y-5.15
X4.4Y-5.75
X4.4Y-5.95
X4.4Y-6.55
X4.4Y-6.75
X4.4Y-7.35
X4.4Y-7.55
X4.4Y-8.15
X4.4Y-8.35
X4.4Y-8.95
X4.4Y-9.15
X4.5Y-4.95
X4.5Y-5.15
X4.5Y-5.75
X4.5Y-5.95
X4.5Y-6.55
X4.5Y-6.75
X4.5Y-7.35
X4.5Y-7.55
X4.5Y-8.15
X4.5Y-8.35
X4.5Y-8.95
X4.5Y-9.15
X4.6Y-4.95
X4.6Y-5.15
X4.6Y-5.75
X4.6Y-5.95
X4.6Y-6.55
X4.6Y-6.75
X4.6Y-7.35
X4.6Y-7.55
X4.6Y-8.15
X4.6Y-8.35
X4.6Y-8.95
X4.6Y-9.15
X4.7Y-4.95
X4.7Y-5.15
X4.7Y-5.75
X4.7Y-5.95
X4.7Y-6.55
X4.7Y-6.75
X4.7Y-7.35
X4.7Y-7.55
X4.7Y-8.15
X4.7Y-8.35
X4.7Y-8.95
X4.7Y-9.15
X5.1Y-4.95
X5.1Y-5.15
X5.1Y-5.75
X5.1Y-5.95
X5.1Y-6.55
X5.1Y-6.75
X5.1Y-7.35
X5.1Y-7.55
X5.1Y-8.15
X5.1Y-8.35
X5.1Y-8.95
X5.1Y-9.15
X5.1625Y-4.75
X5.2Y-4.95
X5.2Y-5.15
X5.2Y-5.75
X5.2Y-5.95
X5.2Y-6.55
X5.2Y-6.75
X5.2Y-7.35
X5.2Y-7.55
X5.2Y-8.15
X5.2Y-8.35
X5.2Y-8.95
X5.2Y-9.15
X5.2625Y-4.75
X5.3Y-4.95
X5.3Y-5.15
X5.3Y-5.75
X5.3Y-5.95
X5.3Y-6.55
X5.3Y-6.75
X5.3Y-7.35
X5.3Y-7.55
X5.3Y-8.15
X5.3Y-8.35
X5.3Y-8.95
X5.3Y-9.15
X5.3625Y-4.75
X5.4Y-4.95
X5.4Y-5.15
X5.4Y-5.75
X5.4Y-5.95
X5.4Y-6.55
X5.4Y-6.75
X5.4Y-7.35
X5.4Y-7.55
X5.4Y-8.15
X5.4Y-8.35
X5.4Y-8.95
X5.4Y-9.15
X5.5Y-4.95
X5.5Y-5.15
X5.5Y-5.75
X5.5Y-5.95
X5.5Y-6.55
X5.5Y-6.75
X5.5Y-7.35
X5.5Y-7.55
X5.5Y-8.15
X5.5Y-8.35
X5.5Y-8.95
X5.5Y-9.15
X5.6Y-4.95
X5.6Y-5.15
X5.6Y-5.75
X5.6Y-5.95
X5.6Y-6.55
X5.6Y-6.75
X5.6Y-7.35
X5.6Y-7.55
X5.6Y-8.15
X5.6Y-8.35
X5.6Y-8.95
X5.6Y-9.15
X5.7Y-4.95
X5.7Y-5.15
X5.7Y-5.75
X5.7Y-5.95
X5.7Y-6.55
X5.7Y-6.75
X5.7Y-7.35
X5.7Y-7.55
X5.7Y-8.15
X5.7Y-8.35
X5.7Y-8.95
X5.7Y-9.15
X5.8Y-4.95
X5.8Y-5.15
X5.8Y-5.75
X5.8Y-5.95
X5.8Y-6.55
X5.8Y-6.75
X5.8Y-7.35
X5.8Y-7.55
X5.8Y-8.15
X5.8Y-8.35
X5.8Y-8.95
X5.8Y-9.15
X5.9Y-4.95
X5.9Y-5.15
X5.9Y-5.75
X5.9Y-5.95
X5.9Y-6.55
X5.9Y-6.75
X5.9Y-7.35
X5.9Y-7.55
X5.9Y-8.15
X5.9Y-8.35
X5.9Y-8.95
X5.9Y-9.15
X6.0Y-4.95
X6.0Y-5.15
X6.0Y-5.75
X6.0Y-5.95
X6.0Y-6.55
X6.0Y-6.75
X6.0Y-7.35
X6.0Y-7.55
X6.0Y-8.15
X6.0Y-8.35
X6.0Y-8.95
X6.0Y-9.15
X6.1Y-4.95
X6.1Y-5.15
X6.1Y-5.75
X6.1Y-5.95
X6.1Y-6.55
X6.1Y-6.75
X6.1Y-7.35
X6.1Y-7.55
X6.1Y-8.15
X6.1Y-8.35
X6.1Y-8.95
X6.1Y-9.15
X6.2Y-4.95
X6.2Y-5.15
X6.2Y-5.75
X6.2Y-5.95
X6.2Y-6.55
X6.2Y-6.75
X6.2Y-7.35
X6.2Y-7.55
X6.2Y-8.15
X6.2Y-8.35
X6.2Y-8.95
X6.2Y-9.15
X6.3Y-4.95
X6.3Y-5.15
X6.3Y-5.75
X6.3Y-5.95
X6.3Y-6.55
X6.3Y-6.75
X6.3Y-7.35
X6.3Y-7.55
X6.3Y-8.15
X6.3Y-8.35
X6.3Y-8.95
X6.3Y-9.15
X6.4Y-4.95
X6.4Y-5.15
X6.4Y-5.75
X6.4Y-5.95
X6.4Y-6.55
X6.4Y-6.75
X6.4Y-7.35
X6.4Y-7.55
X6.4Y-8.15
X6.4Y-8.35
X6.4Y-8.95
X6.4Y-9.15
X6.5Y-4.95
X6.5Y-5.15
X6.5Y-5.75
X6.5Y-5.95
X6.5Y-6.55
X6.5Y-6.75
X6.5Y-7.35
X6.5Y-7.55
X6.5Y-8.15
X6.5Y-8.35
X6.5Y-8.95
X6.5Y-9.15
X6.6Y-4.95
X6.6Y-5.15
X6.6Y-5.75
X6.6Y-5.95
X6.6Y-6.55
X6.6Y-6.75
X6.6Y-7.35
X6.6Y-7.55
X6.6Y-8.15
X6.6Y-8.35
X6.6Y-8.95
X6.6Y-9.15
X6.7Y-4.95
X6.7Y-5.15
X6.7Y-5.75
X6.7Y-5.95
X6.7Y-6.55
X6.7Y-6.75
X6.7Y-7.35
X6.7Y-7.55
X6.7Y-8.15
X6.7Y-8.35
X6.7Y-8.95
X6.7Y-9.15
X6.8Y-4.95
X6.8Y-5.15
X6.8Y-5.75
X6.8Y-5.95
X6.8Y-6.55
X6.8Y-6.75
X6.8Y-7.35
X6.8Y-7.55
X6.8Y-8.15
X6.8Y-8.35
X6.8Y-8.95
X6.8Y-9.15
X7.2Y-2.05
X7.2Y-2.15
X7.2Y-2.25
X7.2Y-3.3
X7.2Y-3.4
X7.2Y-3.5
T10
X7.2614Y-2.572
X7.2614Y-2.828
X7.2614Y-2.922
X7.2614Y-3.178
X7.4386Y-2.572
X7.4386Y-2.828
X7.4386Y-2.922
X7.4386Y-3.178
T11
X0.9Y-1.3
X0.9252Y-4.4
X1.0Y-1.3
X1.1Y-1.3
X1.7126Y-4.4
X2.1Y-2.55
X2.1Y-2.65
X2.2Y-2.55
X2.2Y-2.65
X2.5Y-2.55
X2.5Y-2.65
X7.2Y-4.1
X7.2Y-4.2
X7.2Y-4.3
X7.2Y-4.4
X7.2Y-4.5
X7.2Y-4.6
X7.2Y-4.7
X7.2Y-4.8
X7.3Y-4.1
X7.3Y-4.2
X7.3Y-4.3
X7.3Y-4.4
X7.3Y-4.5
X7.3Y-4.6
X7.3Y-4.7
X7.3Y-4.8
T12
X1.6042Y-0.8934
X1.6042Y-1.0588
X1.6042Y-1.2241
X1.6042Y-1.3895
X1.6042Y-1.5548
X1.6042Y-1.7202
X1.6042Y-1.8855
X1.6042Y-2.0509
X1.6042Y-2.2162
X1.6042Y-2.3816
X1.8208Y-0.8934
X1.8208Y-1.0588
X1.8208Y-1.2241
X1.8208Y-1.3895
X1.8208Y-1.5548
X1.8208Y-1.7202
X1.8208Y-1.8855
X1.8208Y-2.0509
X1.8208Y-2.2162
X1.8208Y-2.3816
T13
X5.7276Y-0.95
X5.7276Y-1.25
X5.7276Y-1.55
X5.7276Y-1.85
T14
X0.885Y-1.8
X0.9165Y-1.5343
X0.9165Y-2.0657
T15
X2.0724Y-0.95
X2.0724Y-1.25
X2.0724Y-1.55
X2.0724Y-1.85
T16
X1.1Y-0.95
X1.1Y-3.75
X1.1Y-5.55
X1.1Y-8.65
X7.2Y-0.95
X7.2Y-5.55
X7.2Y-8.65
T0
M30
